<svg xmlns="http://www.w3.org/2000/svg" width="1600" height="900" viewBox="0 0 1600 900" role="img" aria-label="Editorial diagram of spec, verification, and release">
  <defs>
    <linearGradient id="bg" x1="0" y1="0" x2="1" y2="1">
      <stop offset="0%" stop-color="#f8fafc"/>
      <stop offset="100%" stop-color="#e2e8f0"/>
    </linearGradient>
    <linearGradient id="panel" x1="0" y1="0" x2="0" y2="1">
      <stop offset="0%" stop-color="#ffffff"/>
      <stop offset="100%" stop-color="#f1f5f9"/>
    </linearGradient>
    <filter id="shadow" x="-25%" y="-25%" width="150%" height="160%">
      <feDropShadow dx="0" dy="10" stdDeviation="12" flood-color="#0f172a" flood-opacity="0.12"/>
    </filter>
  </defs>

  <rect width="1600" height="900" fill="url(#bg)"/>

  <g opacity="0.25" stroke="#94a3b8" stroke-width="1">
    <path d="M0 120H1600"/>
    <path d="M0 780H1600"/>
    <path d="M240 0V900"/>
    <path d="M800 0V900"/>
    <path d="M1360 0V900"/>
  </g>

  <g filter="url(#shadow)">
    <rect x="120" y="180" width="390" height="460" rx="24" fill="url(#panel)"/>
    <rect x="605" y="140" width="390" height="540" rx="24" fill="url(#panel)"/>
    <rect x="1090" y="180" width="390" height="460" rx="24" fill="url(#panel)"/>
  </g>

  <g>
    <rect x="166" y="238" width="298" height="342" rx="16" fill="#e2e8f0"/>
    <rect x="200" y="284" width="230" height="14" rx="7" fill="#64748b"/>
    <rect x="200" y="318" width="180" height="12" rx="6" fill="#94a3b8"/>
    <rect x="200" y="346" width="208" height="12" rx="6" fill="#94a3b8"/>
    <rect x="200" y="374" width="152" height="12" rx="6" fill="#94a3b8"/>
    <rect x="200" y="430" width="90" height="90" rx="12" fill="#334155"/>
    <path d="M224 474l20 20 35-44" fill="none" stroke="#f8fafc" stroke-width="10" stroke-linecap="round" stroke-linejoin="round"/>
  </g>

  <g>
    <rect x="650" y="206" width="300" height="90" rx="14" fill="#0f172a"/>
    <rect x="684" y="240" width="170" height="16" rx="8" fill="#cbd5e1"/>
    <circle cx="918" cy="248" r="9" fill="#f59e0b"/>
    <circle cx="888" cy="248" r="9" fill="#64748b"/>

    <rect x="650" y="330" width="300" height="90" rx="14" fill="#1e293b"/>
    <rect x="684" y="364" width="190" height="16" rx="8" fill="#dbeafe"/>
    <circle cx="918" cy="372" r="9" fill="#34d399"/>
    <circle cx="888" cy="372" r="9" fill="#34d399"/>
    <circle cx="858" cy="372" r="9" fill="#34d399"/>

    <rect x="650" y="454" width="300" height="90" rx="14" fill="#334155"/>
    <rect x="684" y="488" width="150" height="16" rx="8" fill="#dbeafe"/>
    <circle cx="918" cy="496" r="9" fill="#34d399"/>
    <circle cx="888" cy="496" r="9" fill="#34d399"/>
    <circle cx="858" cy="496" r="9" fill="#f59e0b"/>
  </g>

  <g>
    <rect x="1142" y="252" width="286" height="112" rx="16" fill="#0f766e"/>
    <rect x="1176" y="296" width="170" height="16" rx="8" fill="#ccfbf1"/>
    <path d="M1380 282l24 24-24 24" fill="none" stroke="#ccfbf1" stroke-width="10" stroke-linecap="round" stroke-linejoin="round"/>

    <rect x="1142" y="402" width="286" height="112" rx="16" fill="#0f766e"/>
    <rect x="1176" y="446" width="170" height="16" rx="8" fill="#ccfbf1"/>
    <path d="M1380 432l24 24-24 24" fill="none" stroke="#ccfbf1" stroke-width="10" stroke-linecap="round" stroke-linejoin="round"/>
  </g>

  <g stroke="#475569" stroke-width="8" fill="none" stroke-linecap="round" stroke-linejoin="round">
    <path d="M522 410H584"/>
    <path d="M568 392l18 18-18 18"/>
    <path d="M1008 410H1070"/>
    <path d="M1054 392l18 18-18 18"/>
  </g>

  <g filter="url(#shadow)">
    <rect x="660" y="706" width="280" height="110" rx="16" fill="#1e293b"/>
    <rect x="692" y="740" width="160" height="14" rx="7" fill="#cbd5e1"/>
    <circle cx="892" cy="747" r="8" fill="#34d399"/>
    <circle cx="862" cy="747" r="8" fill="#f59e0b"/>
  </g>
</svg>
